<svg width="32" height="32" viewBox="0 0 32 32" fill="none" xmlns="http://www.w3.org/2000/svg">
  <rect width="32" height="32" rx="8" fill="#15803d"/>
  <path d="M16 7C13.5 7 7 9.5 7 17C7 20.8889 8.42857 24 10.75 24M16 7C18.5 7 25 9.5 25 17C25 20.8889 23.5714 24 21.25 24M16 7V12.3333M10.75 24H21.25M10.75 24C10.75 22.5 16 20.5 16 17M21.25 24C21.25 22.5 16 20.5 16 17" stroke="white" stroke-width="2" stroke-linecap="round" stroke-linejoin="round"/>
  <path d="M16 12.3333L19.0909 15.5M16 12.3333L12.9091 15.5" stroke="white" stroke-width="2" stroke-linecap="round" stroke-linejoin="round"/>
</svg>